<svg width="86" height="23" viewBox="0 0 86 23" fill="none" xmlns="http://www.w3.org/2000/svg">
<g clip-path="url(#clip0_432_148)">
<path d="M10.204 14.4785L7.87402 18.3253V18.3415L11.0556 17.4813L10.2522 14.4622L10.204 14.4785Z" fill="white"/>
<path d="M8.64499 0H0V23H20.1502V4.78829L8.64499 0ZM13.2246 19.2343L11.6499 19.6563L11.2963 18.3578L6.82922 19.5752L6.53999 18.5039C6.23468 18.6662 5.8651 18.8447 5.43124 19.0233C4.49925 19.4128 3.95291 19.6888 3.82436 19.8186C3.69581 19.9485 3.67975 20.2244 3.79223 20.6627L3.84043 20.825L6.95777 19.9809L7.1988 20.8899L2.50673 22.156L2.18535 20.9224C2.00859 20.2893 2.0568 19.8186 2.3139 19.5265C2.571 19.2343 3.26196 18.8447 4.40284 18.374C5.3509 17.9845 5.89723 17.7085 6.04185 17.5625C6.18647 17.4164 6.21861 17.1242 6.09006 16.6697C5.97758 16.2477 5.81689 16.0042 5.608 15.9393C5.3991 15.8744 4.94918 15.9393 4.27429 16.1179C3.58333 16.3126 3.14948 16.4749 3.00486 16.6373C2.84417 16.7996 2.8281 17.108 2.94058 17.5462L3.00486 17.8059L1.46226 18.2279L1.39798 17.9682C1.20516 17.2054 1.26943 16.6373 1.63901 16.2639C1.99253 15.8906 2.79596 15.5335 4.03326 15.1927C5.23842 14.868 6.09006 14.7869 6.58819 14.933C7.08632 15.079 7.43984 15.5335 7.63266 16.2802C7.63266 16.3126 7.64873 16.3289 7.64873 16.3613L9.15919 13.8617L11.5856 13.2124V13.1962L12.614 17.0593L14.5744 16.5236L14.8154 17.4164L12.855 17.952L13.2246 19.2343ZM18.8487 12.3359L16.824 18.1793L15.0725 18.6662L17.2418 12.6281L12.6622 13.8617L12.4051 12.8878L18.5594 11.2159L18.8487 12.3359Z" fill="white"/>
<path d="M46.5355 0H44.1895V10.5992H46.5355V0Z" fill="white"/>
<path d="M22.5128 10.5992H24.8589V2.02893H32.7808L27.4459 10.5992H30.1455L31.6399 8.16443H38.903L40.4295 10.5992H43.1451L36.6855 0H16.0371V0.422018L20.0061 2.02893H22.5289V10.5992H22.5128ZM37.8263 6.34651H32.7486L35.2875 2.15879L37.8263 6.34651Z" fill="white"/>
<path d="M79.8458 7.012H81.6937C84.5539 7.012 85.8716 6.37897 85.8716 3.91179V3.18137C85.8716 0.633028 84.6664 0 81.7258 0H73.4986V8.58645H71.6025C71.7311 8.05081 71.7793 7.51517 71.7793 6.9633V3.63585C71.7793 0.957657 70.8634 0 67.7621 0H63.777C60.6758 0 59.7759 0.957657 59.7759 3.63585V6.9633C59.7599 7.51517 59.8241 8.05081 59.9527 8.58645H52.545C51.0667 8.58645 50.6649 8.09951 50.6649 6.88215V0H48.335V6.9633C48.335 9.6415 49.2348 10.5992 52.3361 10.5992H75.8286V6.75229L81.9669 10.6154H86.0001L79.8458 7.012ZM63.8735 8.58645C62.3951 8.58645 62.0898 8.26182 62.0898 6.88215V3.74947C62.0898 2.43472 62.3951 2.02893 63.8735 2.02893H67.6657C69.0315 2.02893 69.4332 2.41849 69.4332 3.74947V6.88215C69.4332 8.26182 69.0315 8.58645 67.6657 8.58645H63.8735ZM75.8286 1.99647H81.5812C83.1238 1.99647 83.5416 2.17502 83.5416 3.31122V3.89555C83.5416 5.04799 83.0917 5.22654 81.5812 5.22654H75.8286V1.99647Z" fill="white"/>
<path d="M75.877 19.2668V12.3846H73.547V19.3479C73.5309 19.8998 73.5952 20.4517 73.7237 20.9873H64.0825C62.7166 20.9873 62.3953 20.6465 62.3953 19.3642V18.6175H71.3456V16.7347H62.3953V16.0205C62.3953 14.9817 62.6363 14.5272 63.5201 14.4136H69.6744V12.3846H25.1157C23.2518 12.4658 22.4965 13.3098 22.4965 15.355V15.9069C22.4965 17.7248 23.1072 18.6013 25.4693 18.6013H30.4827C31.3022 18.6013 31.6557 18.8448 31.6557 19.5265V20.1108C31.6557 20.825 31.3022 21.0198 30.4666 21.0198H22.4805V23.0325H30.5791C32.9252 23.0325 33.7768 22.2534 33.7768 20.2731V19.4291C33.7768 17.5138 32.9091 16.7347 30.5791 16.7347H25.6621C24.9069 16.7347 24.6337 16.4912 24.6337 15.8095V15.4686C24.6337 14.6246 24.9711 14.4136 25.6782 14.4136H38.2921V23.0163H40.6382V14.4136H46.8728C46.7443 14.933 46.6961 15.4849 46.7122 16.0205V19.3479C46.7122 22.0261 47.612 22.9838 50.7133 22.9838H58.0406V20.9711H50.6972C49.3314 20.9711 49.01 20.6302 49.01 19.3479V18.6013H57.9603V16.7184H49.01V16.0043C49.01 14.9654 49.251 14.511 50.1348 14.3973H60.2581C60.1296 14.9168 60.0814 15.4686 60.0974 16.0043V19.3317C60.0974 22.0099 60.9973 22.9676 64.0986 22.9676H86.0003V20.9549H77.757C76.2787 20.9711 75.877 20.4841 75.877 19.2668Z" fill="white"/>
<path d="M7.87402 18.3415L10.204 14.4785L10.2522 14.4622L11.0556 17.465L7.87402 18.3415Z" fill="white"/>
</g>
<defs>
<clipPath id="clip0_432_148">
<rect width="86" height="23" fill="white"/>
</clipPath>
</defs>
</svg>
