<svg width="112" height="29" viewBox="0 0 112 29" fill="none" xmlns="http://www.w3.org/2000/svg">
<g clip-path="url(#clip0_432_195)">
<path d="M33.9206 11.0426C33.9206 10.3404 34.0255 9.61702 34.2563 8.95745C34.466 8.34043 34.8017 7.76596 35.2422 7.2766C35.6827 6.78723 36.2072 6.40426 36.7946 6.14894C37.4449 5.87234 38.1371 5.7234 38.8504 5.74468C39.7524 5.74468 40.6754 5.91489 41.5145 6.25532L41.0111 8.17021C40.7174 8.04255 40.4237 7.95745 40.109 7.87234C39.7524 7.78723 39.3958 7.74468 39.0392 7.76596C38.1371 7.76596 37.4449 8.04255 36.9834 8.61702C36.5219 9.19149 36.2701 10 36.2701 11.0426C36.2701 12.0426 36.5009 12.8298 36.9414 13.4255C37.3819 14.0213 38.1371 14.2979 39.186 14.2979C39.5846 14.2979 39.9622 14.2553 40.3398 14.1915C40.6754 14.1277 41.0111 14.0213 41.3257 13.8936L41.6404 15.8298C41.2628 16 40.8852 16.1064 40.4866 16.1702C39.9622 16.2766 39.4378 16.3191 38.8923 16.3191C38.1371 16.3404 37.3819 16.1915 36.6687 15.9149C36.0813 15.6809 35.5359 15.2979 35.1163 14.8085C34.6968 14.3191 34.3821 13.7447 34.1933 13.1277C34.0045 12.4681 33.8996 11.766 33.9206 11.0426Z" fill="white"/>
<path d="M52.2138 11.0213C52.2138 11.766 52.1089 12.4894 51.8782 13.1915C51.6684 13.8085 51.3327 14.383 50.9132 14.8724C50.4936 15.3404 49.9692 15.7021 49.4028 15.9575C48.7944 16.2128 48.1232 16.3617 47.4519 16.3404C46.7806 16.3404 46.1303 16.2128 45.5219 15.9575C44.9555 15.7021 44.4311 15.3404 44.0115 14.8724C43.571 14.383 43.2353 13.8085 43.0256 13.1915C42.7738 12.4894 42.6689 11.7447 42.6689 11.0213C42.6689 10.2766 42.7738 9.5532 43.0256 8.85107C43.2353 8.23405 43.571 7.65958 44.0115 7.1915C44.4311 6.72341 44.9555 6.36171 45.5219 6.12767C46.1303 5.87235 46.7806 5.74469 47.4519 5.74469C48.1232 5.74469 48.7735 5.87235 49.3818 6.12767C49.9482 6.36171 50.4727 6.72341 50.8922 7.1915C51.3327 7.68086 51.6474 8.23405 51.8782 8.85107C52.1089 9.5532 52.2348 10.2979 52.2138 11.0213ZM49.8643 11.0213C49.8643 10.0213 49.6545 9.23405 49.235 8.63831C48.4588 7.63831 47.0533 7.46809 46.0673 8.25533C45.9205 8.36171 45.7946 8.48937 45.6897 8.63831C45.2702 9.21278 45.0604 10.0213 45.0604 11.0213C45.0604 12.0426 45.2702 12.8298 45.6897 13.4255C46.4449 14.4255 47.8504 14.617 48.8364 13.8298C48.9832 13.7021 49.1301 13.5745 49.235 13.4255C49.6545 12.8511 49.8643 12.0426 49.8643 11.0213Z" fill="white"/>
<path d="M56.9332 16.0851C56.3039 14.766 55.6536 13.234 54.9823 11.5319C54.29 9.7234 53.6817 7.87234 53.1572 6H55.6116C55.7585 6.57447 55.9053 7.17021 56.0941 7.82979C56.2829 8.48936 56.4717 9.12766 56.6815 9.78723C56.8913 10.4468 57.101 11.0638 57.3318 11.6809C57.5625 12.2979 57.7513 12.8511 57.9611 13.3191C58.1499 12.8298 58.3597 12.2766 58.5695 11.6809C58.7793 11.0638 58.989 10.4468 59.1988 9.78723C59.4086 9.14894 59.6184 8.48936 59.8072 7.82979C59.996 7.19149 60.1638 6.57447 60.3106 6H62.6811C62.1567 7.87234 61.5483 9.7234 60.856 11.5319C60.1848 13.2553 59.5344 14.766 58.9051 16.0851H56.9332Z" fill="white"/>
<path d="M67.6744 5.74468C68.3247 5.7234 68.975 5.82978 69.6044 6.04255C70.0869 6.21276 70.5064 6.48936 70.8421 6.85106C71.1567 7.21276 71.3875 7.63829 71.5133 8.10638C71.6602 8.63829 71.7231 9.19148 71.7231 9.74468V15.8511C71.3665 15.9362 70.8421 16.0213 70.1078 16.1277C69.3107 16.234 68.4925 16.2979 67.6744 16.2979C67.129 16.2979 66.5836 16.234 66.0382 16.1277C65.5766 16.0213 65.1571 15.8298 64.7795 15.5745C64.4229 15.3191 64.1502 14.9787 63.9614 14.5745C63.7516 14.0851 63.6467 13.5745 63.6677 13.0425C63.6467 12.5319 63.7726 12.0213 64.0033 11.5745C64.2131 11.1702 64.5278 10.8511 64.9054 10.5957C65.3039 10.3404 65.7654 10.1489 66.227 10.0638C66.7514 9.95744 67.2758 9.89361 67.8003 9.89361C68.073 9.89361 68.3247 9.91489 68.5974 9.93617C68.8911 9.97872 69.2058 10.0213 69.4995 10.1064V9.7234C69.4995 9.46808 69.4785 9.21276 69.3946 8.95744C69.2687 8.46808 68.9121 8.04255 68.4296 7.87234C68.115 7.76595 67.7793 7.70212 67.4437 7.7234C66.9612 7.7234 66.4577 7.76595 65.9752 7.82978C65.5976 7.89361 65.241 7.97872 64.8844 8.10638L64.5907 6.21276C65.0102 6.0851 65.4298 5.97872 65.8703 5.91489C66.4787 5.78723 67.0661 5.74468 67.6744 5.74468ZM67.8632 14.4468C68.4086 14.4681 68.9541 14.4255 69.4785 14.3404V11.7447C69.2897 11.7021 69.1219 11.6596 68.9331 11.6383C68.6604 11.5957 68.4086 11.5745 68.1359 11.5745C67.8842 11.5745 67.6115 11.5957 67.3598 11.6383C67.108 11.6808 66.8773 11.7447 66.6465 11.8511C66.4367 11.9574 66.2689 12.1064 66.143 12.2766C66.0172 12.4894 65.9333 12.7234 65.9542 12.9787C65.9542 13.5319 66.1221 13.9149 66.4577 14.1277C66.8982 14.3617 67.3807 14.4681 67.8632 14.4468Z" fill="white"/>
<path d="M82.5683 15.766C82.0019 15.9362 81.4355 16.0639 80.8481 16.149C80.1349 16.2766 79.4007 16.3192 78.6665 16.3192C77.9532 16.3405 77.24 16.2128 76.5477 15.9575C75.9393 15.7234 75.4149 15.3617 74.9534 14.9149C74.5129 14.4468 74.1562 13.8724 73.9465 13.2553C73.6947 12.5532 73.5898 11.8085 73.5898 11.0639C73.5898 10.3405 73.6738 9.59577 73.8835 8.89364C74.0514 8.27662 74.345 7.72343 74.7436 7.23407C75.1212 6.76598 75.6037 6.40428 76.1281 6.17024C76.7155 5.91492 77.3658 5.78726 78.0161 5.78726C78.4567 5.78726 78.8762 5.82981 79.2958 5.95747C79.6314 6.06386 79.9461 6.19152 80.2398 6.34045V1.51066L82.5473 1.12769V15.766H82.5683ZM75.9813 11C75.9813 12.0213 76.2121 12.8298 76.6945 13.4256C77.198 14.0213 77.9322 14.3405 78.6874 14.2979C79.0021 14.2979 79.3168 14.2766 79.6314 14.2553C79.8412 14.2341 80.051 14.1915 80.2608 14.149V8.36173C80.009 8.19152 79.7363 8.06386 79.4636 7.95747C79.128 7.82981 78.7504 7.76598 78.3937 7.76598C77.5546 7.76598 76.9463 8.06386 76.5687 8.63832C76.1701 9.23407 75.9813 10.0213 75.9813 11Z" fill="white"/>
<path d="M88.0644 3.04257C88.0854 3.42555 87.9386 3.80853 87.6449 4.08513C87.3722 4.34045 87.0155 4.4681 86.6589 4.4681C86.2813 4.4681 85.9247 4.34045 85.652 4.08513C85.3583 3.80853 85.2115 3.44683 85.2324 3.04257C85.2115 2.63832 85.3583 2.25534 85.652 1.97874C85.9247 1.72342 86.2813 1.59576 86.6589 1.59576C87.0155 1.59576 87.3722 1.72342 87.6449 1.97874C87.9386 2.25534 88.0854 2.63832 88.0644 3.04257ZM87.8127 16.0851H85.5052V6.00002H87.8127V16.0851Z" fill="white"/>
<path d="M93.2252 14.4042C93.6867 14.4255 94.1272 14.3617 94.5468 14.1915C94.8195 14.0425 94.9873 13.7447 94.9663 13.4255C94.9663 13.0851 94.7985 12.7872 94.5258 12.5957C94.0643 12.2979 93.5608 12.0638 93.0574 11.8723C92.6588 11.7234 92.2812 11.5745 91.9036 11.383C91.5679 11.234 91.2742 11.0213 91.0015 10.7659C90.7498 10.5319 90.54 10.2553 90.3932 9.93615C90.2463 9.55318 90.1624 9.14892 90.1834 8.72339C90.1415 7.87232 90.5191 7.06381 91.1903 6.5319C91.8616 5.99998 92.7637 5.72339 93.9174 5.72339C94.4838 5.72339 95.0293 5.76594 95.5957 5.8936C95.9942 5.97871 96.3928 6.08509 96.7914 6.21275L96.3718 8.10637C96.0572 7.97871 95.7425 7.87232 95.4069 7.78722C94.9663 7.68084 94.5048 7.63828 94.0433 7.63828C93.6447 7.61701 93.2671 7.70211 92.9105 7.87232C92.6378 7.99998 92.47 8.29786 92.47 8.61701C92.47 8.76594 92.491 8.91488 92.5539 9.06381C92.6168 9.21275 92.7217 9.31913 92.8476 9.42552C93.0154 9.55318 93.2042 9.65956 93.393 9.74466C93.6657 9.87232 93.9384 9.97871 94.2321 10.0851C94.7146 10.2553 95.1761 10.4681 95.6166 10.7021C95.9523 10.8723 96.2879 11.1064 96.5606 11.383C96.7914 11.617 96.9802 11.9149 97.1061 12.234C97.2319 12.617 97.2949 13 97.2739 13.383C97.2739 14.3404 96.9173 15.0851 96.225 15.5745C95.5118 16.0638 94.5258 16.3191 93.2042 16.3191C92.491 16.3404 91.7777 16.2553 91.0855 16.1064C90.7079 16 90.3303 15.8936 89.9736 15.7447L90.3722 13.7872C90.7708 13.9574 91.1903 14.0851 91.5889 14.1915C92.1343 14.3404 92.6798 14.4042 93.2252 14.4042Z" fill="white"/>
<path d="M35.5787 25.3191C35.8724 25.3404 36.1451 25.2766 36.3968 25.1702C36.5646 25.0851 36.6695 24.8936 36.6695 24.7021C36.6695 24.4893 36.5856 24.2978 36.3968 24.1702C36.1241 23.9787 35.8304 23.8298 35.5157 23.7234C35.3269 23.6383 35.1382 23.5532 34.9494 23.4893C34.7815 23.4042 34.6347 23.3191 34.4878 23.1915C34.362 23.0851 34.2571 22.9361 34.1732 22.7872C34.0893 22.5957 34.0473 22.4042 34.0473 22.1915C34.0263 21.7659 34.2151 21.3617 34.5508 21.1064C34.9493 20.8085 35.4318 20.6808 35.9143 20.7021C36.0612 20.7021 36.208 20.7021 36.3549 20.7234C36.5017 20.7447 36.6276 20.7659 36.7534 20.7872C36.8793 20.8085 36.9842 20.8298 37.0891 20.8723C37.194 20.8936 37.2569 20.9149 37.3198 20.9361L37.152 21.7234C37.0052 21.6595 36.8583 21.5957 36.6905 21.5532C36.4388 21.4893 36.187 21.4681 35.9353 21.4681C35.7045 21.4681 35.4738 21.5106 35.264 21.617C35.0752 21.7021 34.9703 21.8936 34.9703 22.1064C34.9703 22.2127 34.9913 22.3191 35.0333 22.4042C35.0752 22.4893 35.1381 22.5744 35.2221 22.6383C35.3269 22.7234 35.4318 22.7872 35.5577 22.8298C35.6836 22.8936 35.8514 22.9574 36.0192 23.0212C36.2709 23.1064 36.4807 23.2127 36.6695 23.2978C36.8373 23.383 37.0052 23.4893 37.152 23.617C37.2779 23.7447 37.3828 23.8936 37.4667 24.0425C37.5506 24.234 37.5716 24.4468 37.5716 24.6595C37.5925 25.0851 37.4037 25.4893 37.0471 25.7447C36.6905 26 36.208 26.1064 35.5577 26.1064C35.2011 26.1276 34.8445 26.0851 34.5088 26C34.2571 25.9149 34.0893 25.8723 33.9844 25.8298L34.1522 25.0425C34.2571 25.0851 34.4249 25.1489 34.6557 25.2127C34.9703 25.2978 35.264 25.3404 35.5787 25.3191Z" fill="white"/>
<path d="M43.2559 23.4043C43.2559 23.7873 43.193 24.1702 43.0881 24.5107C42.9832 24.8298 42.8154 25.1064 42.5846 25.3617C42.3749 25.5958 42.1231 25.7873 41.8295 25.9149C41.2211 26.1702 40.5288 26.1702 39.8995 25.9149C39.6058 25.7873 39.3541 25.5958 39.1443 25.3617C38.9345 25.1064 38.7667 24.8298 38.6408 24.5107C38.4101 23.7873 38.4101 23 38.6408 22.2979C38.7457 21.9787 38.9136 21.6809 39.1443 21.4468C39.3541 21.2128 39.6058 21.0213 39.8995 20.8936C40.5079 20.6383 41.2001 20.6383 41.8295 20.8936C42.1231 21.0213 42.3749 21.2128 42.5846 21.4468C42.7944 21.7021 42.9622 22 43.0881 22.2979C43.214 22.6596 43.2769 23.0213 43.2559 23.4043ZM42.3119 23.4043C42.3329 22.9149 42.207 22.4256 41.9343 22.0213C41.4728 21.4256 40.6127 21.3404 40.0254 21.8085C39.9415 21.8724 39.8785 21.9362 39.8156 22.0213C39.5429 22.4256 39.396 22.9149 39.438 23.4043C39.417 23.8936 39.5429 24.383 39.8156 24.7873C40.2771 25.383 41.1372 25.4681 41.7246 25C41.8085 24.9362 41.8714 24.8724 41.9343 24.7873C42.207 24.383 42.3329 23.8936 42.3119 23.4043Z" fill="white"/>
<path d="M46.5495 18.2766C46.7803 18.2766 47.011 18.2979 47.2418 18.3404C47.3886 18.3617 47.5145 18.4043 47.6404 18.4468L47.4725 19.2341C47.3677 19.1915 47.2628 19.149 47.1369 19.1277C46.9691 19.0851 46.7803 19.0638 46.6125 19.0638C46.1929 19.0638 45.8992 19.1915 45.7104 19.4255C45.5216 19.7021 45.4377 20.0426 45.4587 20.383V20.8298H47.4096V21.5958H45.4587V26H44.5566V20.3617C44.5566 19.7021 44.7245 19.1915 45.0391 18.8298C45.3538 18.4468 45.8573 18.2766 46.5495 18.2766Z" fill="white"/>
<path d="M49.1931 20.8085H51.123V21.5745H49.1931V23.9575C49.1931 24.1702 49.214 24.383 49.256 24.5958C49.277 24.7447 49.3399 24.8724 49.4238 25C49.5077 25.0851 49.6126 25.1702 49.7175 25.2128C49.8434 25.2553 49.9902 25.2766 50.1371 25.2766C50.3678 25.2766 50.5776 25.2553 50.8083 25.1915C50.9762 25.1277 51.0811 25.0851 51.165 25.0639L51.3328 25.8298C51.1859 25.8936 51.0181 25.9575 50.8503 26C50.5986 26.0639 50.3259 26.1064 50.0741 26.1064C49.7804 26.1064 49.4867 26.0639 49.214 25.9787C49.0043 25.8936 48.8155 25.766 48.6686 25.5745C48.5218 25.383 48.4169 25.149 48.3749 24.9149C48.312 24.617 48.291 24.3192 48.291 24V19.383L49.1931 19.2341V20.8085Z" fill="white"/>
<path d="M56.4299 25.9787C56.2411 25.5107 56.0523 24.9575 55.8425 24.3404C55.6327 23.7234 55.4439 23.0851 55.2761 22.4256C55.1083 23.0851 54.9195 23.7234 54.7097 24.3404C54.4999 24.9575 54.3111 25.4894 54.1223 25.9787H53.3252C53.0315 25.2979 52.7378 24.5107 52.4441 23.6383C52.1504 22.766 51.8777 21.8085 51.626 20.8085H52.6119C52.6749 21.1277 52.7588 21.4681 52.8427 21.8298C52.9266 22.1915 53.0315 22.5532 53.1364 22.9149C53.2413 23.2766 53.3461 23.6383 53.451 23.9787C53.5559 24.3192 53.6608 24.617 53.7657 24.8724C53.8706 24.5532 53.9965 24.2341 54.1013 23.8936C54.2062 23.5532 54.3111 23.1915 54.416 22.8298C54.5209 22.4681 54.6048 22.1277 54.6887 21.7873C54.7726 21.4468 54.8565 21.1277 54.9195 20.8298H55.6747C55.7376 21.1277 55.8005 21.4468 55.8844 21.7873C55.9684 22.1277 56.0523 22.4681 56.1572 22.8298C56.2621 23.1915 56.3669 23.5319 56.4718 23.8936C56.5767 24.2341 56.6816 24.5745 56.8075 24.8724C56.9124 24.617 57.0172 24.3192 57.1221 23.9787C57.227 23.6383 57.3319 23.2979 57.4368 22.9149C57.5417 22.5532 57.6466 22.1915 57.7305 21.8298C57.8144 21.4681 57.8983 21.1277 57.9612 20.8085H58.9052C58.6535 21.8298 58.3808 22.766 58.0871 23.6383C57.7934 24.5107 57.4997 25.2979 57.206 25.9787H56.4299Z" fill="white"/>
<path d="M61.5275 20.6808C61.8422 20.6808 62.1569 20.7234 62.4506 20.8298C62.6813 20.9149 62.8911 21.0638 63.0589 21.234C63.2057 21.4043 63.3316 21.6383 63.3945 21.8511C63.4575 22.1064 63.4994 22.383 63.4994 22.6596V25.8936C63.4155 25.9149 63.3106 25.9149 63.1638 25.9574C63.0169 25.9787 62.8701 26 62.6813 26.0213C62.5135 26.0425 62.3037 26.0638 62.1149 26.0851C61.9051 26.1064 61.6954 26.1064 61.5066 26.1064C61.2338 26.1064 60.9821 26.0851 60.7094 26.0213C60.4786 25.9787 60.2689 25.8723 60.0801 25.7447C59.8913 25.617 59.7654 25.4468 59.6605 25.234C59.5556 25 59.5137 24.7234 59.5137 24.4681C59.5137 24.2128 59.5556 23.9574 59.6815 23.7234C59.7864 23.5106 59.9542 23.3404 60.143 23.234C60.3528 23.1064 60.5835 23 60.8353 22.9574C61.108 22.8936 61.3807 22.8723 61.6534 22.8723C61.7583 22.8723 61.8422 22.8723 61.9471 22.8936C62.052 22.8936 62.1359 22.9149 62.2198 22.9362C62.3037 22.9574 62.3876 22.9574 62.4506 22.9787C62.5135 23 62.5554 23 62.5974 23V22.7447C62.5974 22.5957 62.5764 22.4468 62.5554 22.2979C62.5345 22.1489 62.4715 22.0213 62.3876 21.8936C62.3037 21.766 62.1778 21.6808 62.031 21.617C61.8422 21.5319 61.6534 21.5106 61.4646 21.5106C61.1919 21.5106 60.9402 21.5319 60.6674 21.5745C60.4996 21.5957 60.3318 21.6383 60.164 21.7021L60.0591 20.9362C60.2479 20.8723 60.4367 20.8085 60.6465 20.7872C60.9402 20.7021 61.2338 20.6808 61.5275 20.6808ZM61.6114 25.3191C61.8212 25.3191 62.01 25.3191 62.1778 25.2979C62.3247 25.2979 62.4505 25.2766 62.5974 25.234V23.7021C62.4925 23.6596 62.3876 23.6383 62.2827 23.617C62.1149 23.5957 61.9261 23.5745 61.7583 23.5745C61.6114 23.5745 61.4646 23.5745 61.3177 23.5957C61.1709 23.617 61.0241 23.6596 60.8982 23.7234C60.7723 23.7872 60.6674 23.8723 60.5835 23.9787C60.4996 24.1064 60.4577 24.2553 60.4577 24.4043C60.4367 24.6808 60.5416 24.9362 60.7723 25.0851C61.0241 25.2766 61.3178 25.3404 61.6114 25.3191Z" fill="white"/>
<path d="M66.8983 20.7021C66.9822 20.7021 67.0661 20.7021 67.171 20.7234C67.2759 20.7234 67.3808 20.7447 67.4647 20.766C67.5696 20.7873 67.6535 20.8085 67.7374 20.8085C67.8003 20.8298 67.8632 20.8298 67.9262 20.8511L67.7793 21.6596C67.6535 21.617 67.5486 21.5958 67.4227 21.5745C67.2129 21.5319 67.0032 21.5107 66.7724 21.5107C66.6046 21.5107 66.4368 21.5319 66.2689 21.5745C66.1011 21.617 65.9962 21.6383 65.9333 21.6596V26H65.0312V21.0426C65.304 20.9575 65.5557 20.8724 65.8284 20.8085C66.164 20.7447 66.5207 20.7021 66.8983 20.7021Z" fill="white"/>
<path d="M68.5127 23.4043C68.5127 23 68.5757 22.5957 68.7015 22.2128C68.8064 21.8936 68.9952 21.617 69.226 21.3617C69.4357 21.1489 69.6875 20.9574 69.9812 20.8511C70.2539 20.7447 70.5476 20.6808 70.8412 20.6808C71.5335 20.6808 72.058 20.8936 72.4146 21.3404C72.7712 21.766 72.96 22.4255 72.96 23.3191V23.4681C72.96 23.5319 72.96 23.5745 72.96 23.6383H69.4777C69.4777 24.0851 69.6455 24.5319 69.9392 24.8511C70.2119 25.1277 70.6315 25.2766 71.1979 25.2766C71.4706 25.2766 71.7433 25.2553 72.016 25.1915C72.1838 25.1489 72.3516 25.1064 72.5195 25.0213L72.6453 25.7872C72.4565 25.8723 72.2677 25.9362 72.058 25.9787C71.7433 26.0425 71.4286 26.0851 71.114 26.0851C70.7154 26.0851 70.3378 26.0213 69.9602 25.8723C69.6455 25.7447 69.3728 25.5532 69.163 25.3191C68.9533 25.0638 68.7854 24.7872 68.7015 24.4681C68.5547 24.1489 68.4917 23.7872 68.5127 23.4043ZM71.995 22.9149C72.016 22.5532 71.9111 22.1702 71.6804 21.8936C71.4706 21.617 71.1349 21.4681 70.7993 21.4894C70.6105 21.4894 70.4217 21.5319 70.2539 21.617C70.107 21.7021 69.9602 21.8085 69.8553 21.9362C69.7504 22.0638 69.6455 22.234 69.6036 22.383C69.5406 22.5532 69.4987 22.7234 69.4777 22.9149H71.995Z" fill="white"/>
<path d="M81.0372 23.4043C81.0372 23.7873 80.9743 24.1702 80.8694 24.5107C80.7645 24.8298 80.5967 25.1064 80.3659 25.3617C80.1561 25.5958 79.9044 25.7873 79.6107 25.9149C79.0024 26.1702 78.3101 26.1702 77.6808 25.9149C77.3871 25.7873 77.1353 25.5958 76.9256 25.3617C76.7158 25.1064 76.548 24.8298 76.4221 24.5107C76.1913 23.7873 76.1913 23 76.4221 22.2979C76.527 21.9787 76.6948 21.6809 76.9256 21.4468C77.1353 21.2128 77.3871 21.0213 77.6808 20.8936C78.2891 20.6383 78.9814 20.6383 79.6107 20.8936C79.9044 21.0213 80.1561 21.2128 80.3659 21.4468C80.5757 21.7021 80.7435 22 80.8694 22.2979C80.9743 22.6596 81.0372 23.0213 81.0372 23.4043ZM80.0722 23.4043C80.0932 22.9149 79.9673 22.4256 79.6946 22.0213C79.2331 21.4256 78.373 21.3404 77.7856 21.8085C77.7017 21.8724 77.6388 21.9362 77.5759 22.0213C77.3032 22.4256 77.1563 22.9149 77.1983 23.4043C77.1773 23.8936 77.3032 24.383 77.5759 24.7873C78.0374 25.383 78.8975 25.4681 79.4848 25C79.5687 24.9362 79.6317 24.8724 79.6946 24.7873C79.9673 24.383 80.1142 23.8936 80.0722 23.4043Z" fill="white"/>
<path d="M86.8057 23.4043C86.8057 23.766 86.7637 24.1277 86.6588 24.4894C86.5749 24.8085 86.4071 25.0851 86.2183 25.3405C86.0295 25.5745 85.7778 25.766 85.5051 25.8936C85.1904 26.0213 84.8547 26.1064 84.5401 26.0851C84.2674 26.0851 84.0156 26.0426 83.7639 25.9575C83.5961 25.8936 83.4283 25.8298 83.2604 25.7234V27.7873H82.3584V20.9787C82.5682 20.9362 82.8409 20.8724 83.1765 20.8085C83.5541 20.7447 83.9317 20.7022 84.2883 20.7234C84.645 20.7234 85.0016 20.7873 85.3372 20.9149C85.6309 21.0426 85.9036 21.2128 86.1344 21.4468C86.3651 21.6809 86.533 21.9787 86.6588 22.2979C86.7427 22.6383 86.8057 23.0213 86.8057 23.4043ZM85.8617 23.4043C85.9036 22.8936 85.7358 22.4043 85.4211 22.0213C85.1275 21.7022 84.6869 21.5107 84.2464 21.5319C84.0366 21.5319 83.8268 21.5319 83.5961 21.5532C83.4702 21.5745 83.3444 21.5958 83.2185 21.617V24.8936C83.3653 25 83.5331 25.1064 83.701 25.1702C83.9107 25.2553 84.1625 25.2979 84.3932 25.2979C84.624 25.2979 84.8547 25.2553 85.0645 25.149C85.2533 25.0639 85.4002 24.9149 85.526 24.7447C85.6519 24.5745 85.7358 24.3617 85.7778 24.149C85.8197 23.9149 85.8617 23.6596 85.8617 23.4043Z" fill="white"/>
<path d="M90.3506 20.9574C90.5604 20.9149 90.8331 20.8511 91.1687 20.7872C91.5673 20.7234 91.9659 20.7021 92.3644 20.7021C92.6372 20.7021 92.9308 20.7447 93.1826 20.8298C93.3924 20.9149 93.5811 21.0426 93.749 21.2128C93.7909 21.1702 93.8748 21.1277 93.9587 21.0638C94.0846 21 94.1895 20.9362 94.3154 20.8936C94.4622 20.8298 94.63 20.7872 94.7979 20.7447C94.9867 20.7021 95.1755 20.6809 95.3643 20.6809C95.6999 20.6596 96.0146 20.7234 96.3292 20.8511C96.56 20.9574 96.7698 21.1277 96.9166 21.3404C97.0635 21.5745 97.1683 21.8298 97.2103 22.1064C97.2522 22.4255 97.2942 22.7447 97.2942 23.0638V25.9574H96.3922V23.2553C96.3922 23 96.3712 22.7234 96.3502 22.4681C96.3292 22.2766 96.2663 22.0851 96.1824 21.9149C96.0985 21.766 95.9936 21.6596 95.8467 21.5957C95.6789 21.5106 95.4901 21.4894 95.3013 21.4894C95.0496 21.4894 94.7769 21.5319 94.5461 21.617C94.3993 21.6596 94.2524 21.7447 94.1475 21.8511C94.2105 22.0426 94.2315 22.234 94.2734 22.4255C94.2944 22.6383 94.3154 22.8511 94.3154 23.0638V25.9574H93.4133V23.2553C93.4133 23 93.3924 22.7234 93.3714 22.4681C93.3504 22.2766 93.2875 22.0851 93.2035 21.9149C93.1196 21.766 93.0148 21.6596 92.8679 21.5957C92.7001 21.5106 92.5113 21.4894 92.3435 21.4894C92.2596 21.4894 92.1547 21.4894 92.0498 21.4894C91.9449 21.4894 91.84 21.5106 91.7561 21.5106C91.6722 21.5106 91.5673 21.5319 91.5044 21.5532C91.4204 21.5745 91.3785 21.5745 91.3575 21.5745V25.9362H90.4555L90.3506 20.9574Z" fill="white"/>
<path d="M100.442 20.6808C100.756 20.6808 101.071 20.7234 101.365 20.8298C101.595 20.9149 101.805 21.0638 101.973 21.234C102.12 21.4043 102.246 21.6383 102.309 21.8511C102.372 22.1064 102.413 22.383 102.413 22.6596V25.8936C102.33 25.9149 102.225 25.9149 102.078 25.9574C101.931 25.9787 101.784 26 101.595 26.0213C101.428 26.0425 101.218 26.0638 101.029 26.0851C100.819 26.1064 100.609 26.1064 100.421 26.1064C100.148 26.1064 99.8962 26.0851 99.6235 26.0213C99.3927 25.9787 99.1829 25.8723 98.9941 25.7447C98.8053 25.617 98.6795 25.4468 98.5746 25.234C98.4697 25 98.4277 24.7234 98.4277 24.4681C98.4277 24.2128 98.4697 23.9574 98.5956 23.7234C98.7004 23.5106 98.8683 23.3404 99.0571 23.234C99.2668 23.1064 99.4976 23 99.7493 22.9574C100.022 22.8936 100.295 22.8723 100.567 22.8723C100.672 22.8723 100.756 22.8723 100.861 22.8936C100.966 22.8936 101.05 22.9149 101.134 22.9362C101.218 22.9574 101.302 22.9574 101.365 22.9787C101.428 23 101.469 23 101.511 23V22.7447C101.511 22.5957 101.49 22.4468 101.47 22.2979C101.449 22.1489 101.386 22.0213 101.302 21.8936C101.218 21.766 101.092 21.6808 100.945 21.617C100.756 21.5319 100.567 21.5106 100.379 21.5106C100.106 21.5106 99.8542 21.5319 99.5815 21.5745C99.4137 21.5957 99.2459 21.6383 99.078 21.7021L98.9731 20.9362C99.1619 20.8723 99.3508 20.8085 99.5605 20.7872C99.8332 20.7021 100.148 20.6808 100.442 20.6808ZM100.526 25.3191C100.735 25.3191 100.924 25.3191 101.092 25.2979C101.239 25.2979 101.365 25.2766 101.511 25.234V23.7021C101.407 23.6596 101.302 23.6383 101.197 23.617C101.029 23.5957 100.84 23.5745 100.672 23.5745C100.526 23.5745 100.379 23.5745 100.232 23.5957C100.085 23.617 99.9381 23.6596 99.8123 23.7234C99.6864 23.7872 99.5815 23.8723 99.4976 23.9787C99.4137 24.1064 99.3717 24.2553 99.3717 24.4043C99.3508 24.6808 99.4556 24.9362 99.6864 25.0851C99.9172 25.2766 100.211 25.3404 100.526 25.3191Z" fill="white"/>
<path d="M105.56 20.6808C105.874 20.6808 106.189 20.7234 106.483 20.8298C106.714 20.9149 106.923 21.0638 107.091 21.234C107.238 21.4043 107.364 21.6383 107.427 21.8511C107.49 22.1064 107.532 22.383 107.532 22.6596V25.8936C107.448 25.9149 107.343 25.9149 107.196 25.9574C107.049 25.9787 106.902 26 106.714 26.0213C106.546 26.0425 106.336 26.0638 106.147 26.0851C105.937 26.1064 105.728 26.1064 105.539 26.1064C105.266 26.1064 105.014 26.0851 104.742 26.0213C104.511 25.9787 104.301 25.8723 104.112 25.7447C103.923 25.617 103.798 25.4468 103.693 25.234C103.588 25 103.546 24.7234 103.546 24.4681C103.546 24.2128 103.588 23.9574 103.714 23.7234C103.819 23.5106 103.986 23.3404 104.175 23.234C104.385 23.1064 104.616 23 104.867 22.9574C105.14 22.8936 105.413 22.8723 105.686 22.8723C105.791 22.8723 105.874 22.8723 105.979 22.8936C106.084 22.8936 106.168 22.9149 106.252 22.9362C106.336 22.9574 106.42 22.9574 106.483 22.9787C106.546 23 106.588 23 106.63 23V22.7447C106.63 22.5957 106.609 22.4468 106.588 22.2979C106.567 22.1489 106.504 22.0213 106.42 21.8936C106.336 21.766 106.21 21.6808 106.063 21.617C105.874 21.5319 105.686 21.5106 105.497 21.5106C105.224 21.5106 104.972 21.5319 104.7 21.5745C104.532 21.5957 104.364 21.6383 104.196 21.7021L104.091 20.9362C104.28 20.8723 104.469 20.8085 104.679 20.7872C104.951 20.7021 105.266 20.6808 105.56 20.6808ZM105.644 25.3191C105.853 25.3191 106.042 25.3191 106.21 25.2979C106.357 25.2979 106.483 25.2766 106.63 25.234V23.7021C106.525 23.6596 106.42 23.6383 106.315 23.617C106.147 23.5957 105.958 23.5745 105.791 23.5745C105.644 23.5745 105.497 23.5745 105.35 23.5957C105.203 23.617 105.056 23.6596 104.93 23.7234C104.805 23.7872 104.7 23.8723 104.616 23.9787C104.532 24.1064 104.49 24.2553 104.49 24.4043C104.469 24.6808 104.574 24.9362 104.805 25.0851C105.035 25.2766 105.329 25.3404 105.644 25.3191Z" fill="white"/>
<path d="M109.882 20.8085H111.811V21.5745H109.882V23.9575C109.882 24.1702 109.903 24.383 109.944 24.5958C109.965 24.7447 110.028 24.8724 110.112 25C110.196 25.0851 110.301 25.1702 110.406 25.2128C110.532 25.2553 110.679 25.2766 110.826 25.2766C111.056 25.2766 111.266 25.2553 111.497 25.1915C111.665 25.1277 111.77 25.0851 111.853 25.0639L112.021 25.8298C111.874 25.8936 111.707 25.9575 111.539 26C111.287 26.0639 111.014 26.1064 110.763 26.1064C110.469 26.1064 110.175 26.0639 109.903 25.9787C109.693 25.8936 109.504 25.766 109.357 25.5745C109.21 25.383 109.105 25.149 109.063 24.9149C109 24.617 108.979 24.3192 108.979 24V19.383L109.882 19.2341V20.8085Z" fill="white"/>
<path d="M14.2858 0C6.3982 0 0 6.48936 0 14.4894C0 22.4894 6.3982 28.9787 14.2858 28.9787C22.1734 28.9787 28.5716 22.4894 28.5716 14.4894C28.5926 6.48936 22.1944 0 14.2858 0ZM22.7398 7.19149L17.894 25.5319C17.6423 26.4894 17.1388 26.5106 16.7822 25.5957L12.9852 15.8298L3.35643 11.9574C2.45439 11.5957 2.47537 11.0851 3.41937 10.8298L21.5022 5.91489C22.4461 5.65957 22.9916 6.23404 22.7398 7.19149Z" fill="white"/>
</g>
<defs>
<clipPath id="clip0_432_195">
<rect width="112" height="29" fill="white"/>
</clipPath>
</defs>
</svg>
