<svg width="103" height="31" viewBox="0 0 103 31" fill="none" xmlns="http://www.w3.org/2000/svg">
<g clip-path="url(#clip0_432_185)">
<path d="M44.7533 19.4283C43.1593 19.4283 41.5652 19.413 39.9711 19.4283C39.2936 19.4375 39.0147 19.1822 39.0147 18.516C39.0147 16.9776 38.9908 16.9776 40.5625 16.9776C43.0365 16.9776 45.5041 16.9699 47.9828 16.9776C48.5902 16.9776 49.0556 16.8714 49.0349 16.1591C49.0142 15.4468 48.52 15.4283 47.9749 15.4299C45.6879 15.436 43.4031 15.436 41.1204 15.4299C39.6858 15.4299 39.0386 14.7791 39.0322 13.393C39.0322 12.6237 39.0195 11.8545 39.0322 11.0853C39.0561 9.99455 39.7591 9.27611 40.867 9.27149C44.1921 9.25607 47.5158 9.27149 50.8409 9.26068C51.4483 9.26068 51.7352 9.49915 51.7145 10.0838C51.7145 10.1346 51.7145 10.1868 51.7145 10.2376C51.7448 11.6776 51.7145 11.7145 50.2416 11.713C47.6625 11.713 45.0817 11.7022 42.5025 11.7284C42.2012 11.7529 41.9187 11.88 41.7055 12.0868C41.6018 12.1884 41.6353 12.6053 41.7549 12.7022C41.9983 12.8798 42.293 12.9798 42.5981 12.9884C44.8856 13.0115 47.1731 12.9976 49.4605 13.0037C50.9573 13.0037 51.6379 13.6776 51.6411 15.1284C51.6411 15.8976 51.6411 16.6668 51.6411 17.436C51.6284 18.6806 50.9063 19.4021 49.6183 19.4176C47.9972 19.4421 46.3744 19.4283 44.7533 19.4283Z" fill="white"/>
<path d="M72.5973 9.27567C74.0064 9.27567 75.4156 9.27567 76.8247 9.27567C78.1985 9.28338 78.9468 10.0003 78.9515 11.3203C78.9577 13.3203 78.9577 15.3202 78.9515 17.3202C78.9515 18.7125 78.232 19.4171 76.8088 19.4202C74.0458 19.4284 71.2827 19.4284 68.5198 19.4202C66.9799 19.4202 66.2881 18.7356 66.2881 17.2495C66.2881 15.2741 66.2881 13.2987 66.2881 11.3233C66.2881 9.90338 66.9639 9.27416 68.4464 9.27106L72.5973 9.27567ZM72.626 11.7218C71.6696 11.7218 70.7132 11.7326 69.7567 11.7218C69.1605 11.7126 68.8768 11.9464 68.8863 12.5434C68.9044 13.7484 68.9044 14.9536 68.8863 16.1587C68.8863 16.751 69.1637 16.991 69.7567 16.9895C71.6441 16.9817 73.5298 16.9771 75.4172 16.9895C76.0548 16.9895 76.3497 16.7172 76.3481 16.1156C76.3481 14.9357 76.3481 13.7556 76.3481 12.5772C76.3481 11.9618 76.058 11.7018 75.4156 11.7188C74.4863 11.7402 73.5569 11.7218 72.626 11.7218Z" fill="white"/>
<path d="M86.214 11.7196C84.779 11.7196 84.779 11.7196 84.3967 13.0504C83.8645 14.8965 83.3097 16.7426 82.8025 18.6072C82.6433 19.2134 82.3242 19.4364 81.6867 19.4364C79.7258 19.4364 79.6844 19.4088 80.2377 17.6103C80.8869 15.4976 81.5408 13.3868 82.1986 11.2781C82.6769 9.73964 83.3511 9.27812 85.0482 9.27812C85.9526 9.27812 86.8578 9.26882 87.7582 9.27812C88.9459 9.29196 89.7605 9.78425 90.1226 10.8811C90.9512 13.395 91.7167 15.9272 92.4915 18.4596C92.6936 19.1242 92.4323 19.398 91.6941 19.4287C91.5887 19.4287 91.4818 19.4287 91.3757 19.4287C89.9087 19.4287 89.8674 19.4426 89.5233 18.0549C89.3204 17.2411 88.9318 16.8242 88.0391 16.978C87.9861 16.9826 87.933 16.9826 87.88 16.978C86.1867 16.978 86.0814 16.8365 86.5105 15.2657C86.6424 14.7842 86.8741 14.5319 87.4414 14.5226C88.1921 14.5088 88.3645 14.2411 88.2014 13.5334C88.1663 13.3796 88.114 13.238 88.0711 13.0889C87.6818 11.7196 87.6818 11.7196 86.214 11.7196Z" fill="white"/>
<path d="M58.9588 9.27475C60.6086 9.27475 62.2585 9.2963 63.9003 9.26712C64.6112 9.25479 64.9588 9.49168 64.8966 10.204C64.8831 10.4602 64.8831 10.717 64.8966 10.9732C64.8966 11.4855 64.6384 11.724 64.1123 11.7209C63.1559 11.7209 62.1995 11.7409 61.2431 11.7209C60.5512 11.7009 60.2866 12.0025 60.2866 12.644C60.2978 14.5701 60.2866 16.4901 60.2866 18.4208C60.2866 19.3316 60.1766 19.4285 59.2202 19.4347C59.0608 19.4347 58.9014 19.4208 58.742 19.4347C57.9976 19.4977 57.6851 19.2024 57.6978 18.4562C57.7329 16.5563 57.7122 14.6548 57.709 12.7548C57.709 11.8563 57.5783 11.7348 56.6458 11.7301C55.7133 11.7255 54.7824 11.6994 53.853 11.7378C53.1118 11.7686 52.828 11.4517 52.8727 10.7763C52.8823 10.6224 52.8727 10.4686 52.8727 10.3148C52.887 9.40397 53.0066 9.28398 53.9263 9.28247C55.6055 9.27634 57.2829 9.27377 58.9588 9.27475Z" fill="white"/>
<path d="M93.5063 13.8575C93.5063 12.6514 93.5258 11.4452 93.5063 10.2391C93.4907 9.56062 93.7489 9.2637 94.484 9.26521C96.1164 9.26521 96.1164 9.24525 96.1164 10.8037V15.5729C96.1164 16.9205 96.1749 16.9775 97.5319 16.9775C99.0472 16.9775 100.56 16.9974 102.078 16.9683C102.731 16.9559 103.02 17.2021 102.983 17.8236C102.972 18.0037 102.983 18.1836 102.983 18.3636C102.972 19.3159 102.867 19.4205 101.88 19.4221C99.8322 19.4221 97.7847 19.4221 95.7379 19.4221C94.2031 19.4221 93.5195 18.7405 93.5063 17.239C93.5031 16.1144 93.5063 14.9868 93.5063 13.8575Z" fill="white"/>
<path d="M0.552734 10.1373C0.552734 9.74088 0.726796 9.57121 1.06048 9.53651C2.43051 9.39156 3.79974 9.24269 5.16977 9.09767C7.51037 8.85035 9.85122 8.60386 12.1924 8.35805C14.5191 8.11383 16.8469 7.87037 19.1757 7.62774L26.8368 6.82177C27.1295 6.79092 27.4215 6.75622 27.7135 6.72228C28.2277 6.66367 28.4964 6.8935 28.4234 7.38246C28.1325 9.34189 27.8314 11.3003 27.5202 13.2577C27.4624 13.6264 27.3782 13.9912 27.294 14.3544C27.2009 14.7601 27.0124 14.8774 26.5761 14.8388C23.5109 14.5673 20.446 14.2964 17.3813 14.0259C14.0773 13.7305 10.7734 13.4259 7.46946 13.1297C5.58982 12.9611 3.71044 12.7966 1.83133 12.6361C0.993905 12.5651 0.944169 12.5304 0.814225 11.7454C0.721983 11.187 0.632145 10.6279 0.552734 10.1373Z" fill="white"/>
<path d="M0.00352609 5.07312C0.00352609 4.71912 0.021975 4.37052 0.00352609 4.02501C-0.0277568 3.60777 0.147909 3.39337 0.57865 3.2854C2.22141 2.87741 3.85213 2.42469 5.49809 2.02905C8.332 1.3465 11.1779 0.69404 14.0223 0.0346335C14.2026 -0.00877533 14.391 -0.0114152 14.5726 0.0269212C19.0821 1.11385 23.59 2.20515 28.0964 3.30082C28.3948 3.37331 28.6242 3.50365 28.6105 3.84068C28.5969 4.17771 28.3579 4.28492 28.0491 4.33428C25.4662 4.75588 22.8839 5.18006 20.3022 5.60681L7.73682 7.67371C5.51012 8.03928 3.28449 8.40433 1.05992 8.76892C0.571432 8.84604 0.356461 8.70412 0.305126 8.21825C0.191223 7.17242 0.101386 6.11892 0.00352609 5.07312Z" fill="white"/>
<path d="M3.69793 14.856C6.54547 14.9778 9.39325 15.0979 12.2414 15.2162C16.9071 15.4167 21.573 15.6182 26.2393 15.8208C26.6869 15.8401 26.8962 16.0992 26.7943 16.5149C26.6772 16.9892 26.5449 17.4612 26.4238 17.9355C26.3531 18.2147 26.1719 18.3651 25.8832 18.4391C19.6469 20.0366 13.4106 21.6367 7.17434 23.2393C6.76124 23.3457 6.34093 23.4313 5.93585 23.5609C5.56768 23.6797 5.33265 23.5609 5.10886 23.2848C3.50461 21.2904 2.39126 19.0754 1.84742 16.6028C1.76239 16.2172 1.65812 15.8269 1.5771 15.4367C1.49208 15.0295 1.70384 14.7912 2.13297 14.7904H3.69793V14.856Z" fill="white"/>
<path d="M23.8632 20.8688C23.9602 20.932 24.1937 21.0014 24.2322 21.1271C24.2891 21.3099 24.2803 21.5822 24.172 21.7303C23.5488 22.5786 22.9367 23.4455 22.2308 24.2306C20.1967 26.4903 17.7085 28.2256 15.0919 29.8066C14.8208 29.9709 14.5425 30.1259 14.277 30.2994C14.0115 30.473 13.742 30.4761 13.4572 30.3071C11.0324 28.8603 8.66691 27.3364 6.63915 25.3836C6.47872 25.2293 6.33434 24.9756 6.33595 24.7666C6.33595 24.4642 6.6568 24.3987 6.92391 24.3432L17.544 22.1575L23.3819 20.9529C23.5126 20.9266 23.645 20.9066 23.8632 20.8688Z" fill="white"/>
</g>
<defs>
<clipPath id="clip0_432_185">
<rect width="103" height="31" fill="white"/>
</clipPath>
</defs>
</svg>
